<svg id="logosandtypes_com" xmlns="http://www.w3.org/2000/svg" viewBox="0 0 150 150"><path d="M0 0h150v150H0V0z" fill="none"/><path d="M112.1 32.4l-2.9 14c-.3 1.5-1.7 2.8-3.5 2.8H80.4c-2.8 0-5.2 2.3-5.2 5.2v3.1c0 2.8 2.3 5.2 5.2 5.2h21.4c2 0 3.7 1.9 3.2 4-.4 2.2-2.7 13.1-2.9 14.3-.2 1.2-1.5 2.8-3.5 2.8H81.2c-3.7.1-4.4.2-6.6 2.8-2.2 2.7-21.3 26.6-21.3 26.6-.2.2-.3.2-.3-.1V31.7c0-1.9 1.6-3.5 3.5-3.5h52.4c1.8 0 3.7 1.8 3.2 4.2m3.8-17.6H51.2c-8.9 0-11.5 6.7-11.5 11v102.9c0 5.1 2.6 6.6 4 7.1 1.4.6 5.2 1 7.8-1.7 0 0 30.7-35.8 31.2-36.4s.7-.6 1.1-.6h19.4c8.3 0 9.9-5.7 10.8-9.2.7-2.9 9.3-44.4 12-57.6 1.9-10.1-.6-15.5-10.1-15.5" fill="#fa4778"/></svg>